HIERARCHY
ROOT joint_Root
{
  OFFSET 0 0 0
  CHANNELS 6 Xposition Yposition Zposition Zrotation Xrotation Yrotation
  JOINT Hips
  {
    OFFSET 0 93.9241 -3
    CHANNELS 6 Xposition Yposition Zposition Zrotation Xrotation Yrotation
    JOINT Spine
    {
      OFFSET 15.7357 0 0
      CHANNELS 6 Xposition Yposition Zposition Zrotation Xrotation Yrotation
      JOINT Chest
      {
        OFFSET 8.98455 -0.406207 0
        CHANNELS 6 Xposition Yposition Zposition Zrotation Xrotation Yrotation
        JOINT Neck
        {
          OFFSET 16.3773 0 0
          CHANNELS 6 Xposition Yposition Zposition Zrotation Xrotation Yrotation
          JOINT Head
          {
            OFFSET 6.45672 0 0
            CHANNELS 6 Xposition Yposition Zposition Zrotation Xrotation Yrotation
            End Site
            {
              OFFSET 0 0 0
            }
          }
        }
        JOINT Shoulder_L
        {
          OFFSET 12.9942 -0.242716 4.98039
          CHANNELS 6 Xposition Yposition Zposition Zrotation Xrotation Yrotation
          JOINT UpperArm_L
          {
            OFFSET 5.34809 0 0
            CHANNELS 6 Xposition Yposition Zposition Zrotation Xrotation Yrotation
            JOINT LowerArm_L
            {
              OFFSET 24.3286 1.87007e-05 0
              CHANNELS 6 Xposition Yposition Zposition Zrotation Xrotation Yrotation
              JOINT Hand_L
              {
                OFFSET 22.2916 0 0
                CHANNELS 6 Xposition Yposition Zposition Zrotation Xrotation Yrotation
                End Site
                {
                  OFFSET 0 0 0
                }
              }
            }
          }
        }
        JOINT Shoulder_R
        {
          OFFSET 12.9945 -0.242716 -4.98039
          CHANNELS 6 Xposition Yposition Zposition Zrotation Xrotation Yrotation
          JOINT UpperArm_R
          {
            OFFSET -5.34813 0 0
            CHANNELS 6 Xposition Yposition Zposition Zrotation Xrotation Yrotation
            JOINT LowerArm_R
            {
              OFFSET -24.3289 0.000322201 0
              CHANNELS 6 Xposition Yposition Zposition Zrotation Xrotation Yrotation
              JOINT Hand_R
              {
                OFFSET -22.2915 -0.000108084 0
                CHANNELS 6 Xposition Yposition Zposition Zrotation Xrotation Yrotation
                End Site
                {
                  OFFSET 0 0 0
                }
              }
            }
          }
        }
      }
    }
    JOINT UpperLeg_L
    {
      OFFSET -2.19248 -6.46944 0
      CHANNELS 6 Xposition Yposition Zposition Zrotation Xrotation Yrotation
      JOINT LowerLeg_L
      {
        OFFSET 39.0811 0 -1.23785e-05
        CHANNELS 6 Xposition Yposition Zposition Zrotation Xrotation Yrotation
        JOINT Foot_L
        {
          OFFSET 40.9854 0 -1.26872e-05
          CHANNELS 6 Xposition Yposition Zposition Zrotation Xrotation Yrotation
          JOINT Toes_L
          {
            OFFSET 11.7543 0 0
            CHANNELS 6 Xposition Yposition Zposition Zrotation Xrotation Yrotation
            End Site
            {
              OFFSET 0 0 0
            }
          }
        }
      }
    }
    JOINT UpperLeg_R
    {
      OFFSET -2.19251 6.46944 0
      CHANNELS 6 Xposition Yposition Zposition Zrotation Xrotation Yrotation
      JOINT LowerLeg_R
      {
        OFFSET -39.0811 -0.00228153 -0.0401928
        CHANNELS 6 Xposition Yposition Zposition Zrotation Xrotation Yrotation
        JOINT Foot_R
        {
          OFFSET -40.9854 0 0
          CHANNELS 6 Xposition Yposition Zposition Zrotation Xrotation Yrotation
          JOINT Toes_R
          {
            OFFSET -11.7543 0 0
            CHANNELS 6 Xposition Yposition Zposition Zrotation Xrotation Yrotation
            End Site
            {
              OFFSET 0 0 0
            }
          }
        }
      }
    }
  }
}
MOTION
Frames:	4
Frame Time:	0.0333333
0 0 0 0 0 -0 -156.828 95.5961 1.06587 89.2873 -3.24373 -9.78327 15.7357 5.1072e-06 -5.51765e-07 176.123 79.5394 -177.639 8.98455 -0.406207 -4.3199e-07 -6.3082 21.0241 -1.89134 16.3773 -1.3905e-06 -6.99897e-07 -8.78664 -1.12469 -2.51531 6.45672 -1.25837e-06 -1.02172e-07 7.41303 -20.9031 -4.06562 12.9942 -0.242716 4.98039 -89.0665 -2.07898 -80.8126 5.34809 -7.22636e-06 -6.2814e-07 -70.0398 12.4493 33.9713 24.3286 1.87007e-05 4.90208e-06 26.2241 -11.6284 -112.255 22.2916 -9.88446e-07 4.63217e-06 37.9947 4.90995 9.26424 12.9945 -0.242716 -4.98039 90.0307 1.18175 -106.491 -5.34813 -1.25947e-06 -3.79883e-06 -76.3058 -3.23296 23.093 -24.3289 0.000322201 -8.65921e-06 10.3324 -4.13488 -111.583 -22.2915 -0.000108084 -4.47941e-06 60.8322 5.67439 -18.4407 -2.19248 -6.46944 -1.22534e-07 -177.572 16.9596 -31.6913 39.0811 -6.73843e-06 -1.23785e-05 0.0197967 -0.0519547 22.371 40.9854 -6.48686e-06 -1.26872e-05 8.83542 -11.068 -60.7132 11.7543 -2.30145e-07 3.05095e-06 0.456309 -0.55493 -21.8134 -2.19251 6.46944 -1.45247e-06 -174.194 8.38798 -174.227 -39.0811 -0.00228153 -0.0401928 -0.00436352 0.0543216 26.5232 -40.9854 7.72618e-06 5.99936e-06 8.15047 -10.1675 -26.3364 -11.7543 -5.6619e-06 -5.58687e-06 0.588276 -0.663579 -21.5099 
0 0 0 0 0 -0 -157.634 94.5024 10.4525 87.7945 0.665398 -8.43482 15.7357 5.1072e-06 -5.51765e-07 175.582 80.4059 -176.515 8.98455 -0.406207 -4.3199e-07 -6.33091 19.214 -0.80953 16.3773 -1.3905e-06 -6.99897e-07 -7.93391 -3.0445 -1.60176 6.45672 -1.25837e-06 -1.02172e-07 6.84675 -21.4592 -3.26552 12.9942 -0.242716 4.98039 -89.6117 -0.931231 -82.397 5.34809 -7.22636e-06 -6.2814e-07 -70.7255 14.5198 30.5534 24.3286 1.87007e-05 4.90208e-06 23.8897 -11.2799 -113.828 22.2916 -9.88446e-07 4.63217e-06 45.5447 5.06205 6.02315 12.9945 -0.242716 -4.98039 89.9904 1.35937 -104.597 -5.34813 -1.25947e-06 -3.79883e-06 -79.1628 0.895023 28.8989 -24.3289 0.000322201 -8.65921e-06 11.5663 -2.62721 -102.624 -22.2915 -0.000108084 -4.47941e-06 57.909 5.68 -20.7883 -2.19248 -6.46944 -1.22534e-07 -176.249 17.9445 -27.5171 39.0811 -6.73843e-06 -1.23785e-05 0.0299861 -0.104303 15.7756 40.9854 -6.48686e-06 -1.26872e-05 5.76447 -7.43131 -65.5059 11.7543 -2.30145e-07 3.05095e-06 0.457086 -0.555961 -21.8227 -2.19251 6.46944 -1.45247e-06 -171.324 12.1277 -175.615 -39.0811 -0.00228153 -0.0401928 0.00157482 0.0450561 37.6206 -40.9854 7.72618e-06 5.99936e-06 8.11881 -13.0709 -31.2458 -11.7543 -5.6619e-06 -5.58687e-06 0.579466 -0.652754 -21.4324 
0 0 0 0 0 -0 -157.826 92.279 19.8579 88.5122 5.17695 -6.39294 15.7357 5.1072e-06 -5.51765e-07 169.09 82.1988 -170.089 8.98455 -0.406207 -4.3199e-07 -4.76867 15.415 -1.36261 16.3773 -1.3905e-06 -6.99897e-07 -8.18222 -4.86427 -0.856523 6.45672 -1.25837e-06 -1.02172e-07 6.63888 -20.604 -2.4342 12.9942 -0.242716 4.98039 -90.3157 0.899929 -85.5797 5.34809 -7.22636e-06 -6.2814e-07 -71.4166 16.368 25.4899 24.3286 1.87007e-05 4.90208e-06 22.2912 -10.9716 -114.904 22.2916 -9.88446e-07 4.63217e-06 50.973 5.11369 4.79734 12.9945 -0.242716 -4.98039 89.9145 1.68374 -102.111 -5.34813 -1.25947e-06 -3.79883e-06 -81.4025 1.71863 33.1668 -24.3289 0.000322201 -8.65921e-06 13.6428 -0.53411 -92.2204 -22.2915 -0.000108084 -4.47941e-06 54.8189 5.67572 -23.7823 -2.19248 -6.46944 -1.22534e-07 -179.867 15.4014 -25.5693 39.0811 -6.73843e-06 -1.23785e-05 0.0813385 -0.192921 21.0675 40.9854 -6.48686e-06 -1.26872e-05 3.28981 -3.68665 -66.7205 11.7543 -2.30145e-07 3.05095e-06 0.488436 -0.598146 -22.2055 -2.19251 6.46944 -1.45247e-06 -172.075 16.8925 -179.027 -39.0811 -0.00228153 -0.0401928 0.0213843 0.0184523 51.7791 -40.9854 7.72618e-06 5.99936e-06 7.51688 -16.4149 -31.6479 -11.7543 -5.6619e-06 -5.58687e-06 0.546241 -0.612177 -21.1405 
0 0 0 0 0 -0 -156.92 89.2064 28.3216 93.2822 8.26606 -5.91972 15.7357 5.1072e-06 -5.51765e-07 154.897 84.2189 -157.246 8.98455 -0.406207 -4.3199e-07 -2.65615 10.6799 -4.46116 16.3773 -1.3905e-06 -6.99897e-07 -9.08683 -6.05211 -0.434773 6.45672 -1.25837e-06 -1.02172e-07 4.90722 -18.3994 -2.55681 12.9942 -0.242716 4.98039 -90.9747 3.50209 -89.4148 5.34809 -7.22636e-06 -6.2814e-07 -70.5868 17.8699 18.1742 24.3286 1.87007e-05 4.90208e-06 21.1759 -11.2242 -116.679 22.2916 -9.88446e-07 4.63217e-06 52.0386 5.06917 5.81269 12.9945 -0.242716 -4.98039 89.6869 3.01659 -99.0812 -5.34813 -1.25947e-06 -3.79883e-06 -80.3033 0.664485 37.4603 -24.3289 0.000322201 -8.65921e-06 13.9508 0.8935 -86.4038 -22.2915 -0.000108084 -4.47941e-06 53.1492 5.67498 -23.9971 -2.19248 -6.46944 -1.22534e-07 171.834 9.17989 -27.733 39.0811 -6.73843e-06 -1.23785e-05 0.126296 -0.142167 35.1497 40.9854 -6.48686e-06 -1.26872e-05 7.06167 2.1382 -62.433 11.7543 -2.30145e-07 3.05095e-06 0.08807 -0.0993084 -17.5448 -2.19251 6.46944 -1.45247e-06 -178.047 20.0791 172.398 -39.0811 -0.00228153 -0.0401928 -0.057104 0.0363284 70.8172 -40.9854 7.72618e-06 5.99936e-06 11.0352 -21.4437 -30.2594 -11.7543 -5.6619e-06 -5.58687e-06 0.558133 -0.626646 -21.2448 
